<svg xmlns="http://www.w3.org/2000/svg" width="24" height="24" viewBox="0 0 24 24"><defs><linearGradient id="a" x1="50%" x2="50%" y1="0%" y2="100%"><stop offset="0%" stop-color="#FFBE1D"/><stop offset="100%" stop-color="#FFB300"/></linearGradient><linearGradient id="b" x1="50%" x2="50%" y1="0%" y2="100%"><stop offset="0%" stop-color="#9FC7FF"/><stop offset="100%" stop-color="#9BC1F5"/></linearGradient><radialGradient id="c" cx="55.585%" cy="10.083%" r="58.215%" fx="55.585%" fy="10.083%" gradientTransform="matrix(0 -1 .719 0 .483 .657)"><stop offset="0%" stop-color="#486DA8" stop-opacity=".4"/><stop offset="100%" stop-color="#486DA8" stop-opacity="0"/></radialGradient></defs><g fill="none"><path fill="url(#a)" d="M7.508 1.367c1.684.711 2.867 2.378 2.867 4.321 0 2.589-2.099 4.688-4.688 4.688-1.943 0-3.61-1.182-4.321-2.867.56.236 1.175.367 1.821.367 2.589 0 4.688-2.099 4.688-4.688 0-.646-.131-1.261-.367-1.821z"/><path fill="#67C8E2" fill-rule="nonzero" d="M13.125 19.417l.682-.394c.722-.417 1.347.666.625 1.083l-.682.394.682.394c.722.417.097 1.499-.625 1.083l-.682-.394v.787c0 .345-.28.625-.625.625s-.625-.28-.625-.625v-.787l-.682.394c-.722.417-1.347-.666-.625-1.083l.682-.394-.682-.394c-.722-.417-.097-1.499.625-1.083l.682.394v-.787c0-.345.28-.625.625-.625s.625.28.625.625v.787zm6-1l.682-.394c.722-.417 1.347.666.625 1.083l-.682.394.682.394c.722.417.097 1.499-.625 1.083l-.682-.394v.787c0 .345-.28.625-.625.625s-.625-.28-.625-.625v-.787l-.682.394c-.722.417-1.347-.666-.625-1.083l.682-.394-.682-.394c-.722-.417-.097-1.499.625-1.083l.682.394v-.787c0-.345.28-.625.625-.625s.625.28.625.625v.787zm-12 0l.682-.394c.722-.417 1.347.666.625 1.083l-.682.394.682.394c.722.417.097 1.499-.625 1.083l-.682-.394v.787c0 .345-.28.625-.625.625s-.625-.28-.625-.625v-.787l-.682.394c-.722.417-1.347-.666-.625-1.083l.682-.394-.682-.394c-.722-.417-.097-1.499.625-1.083l.682.394v-.787c0-.345.28-.625.625-.625s.625.28.625.625v.787z"/><path fill="url(#b)" d="M8 16c-2.209 0-4-1.791-4-4s1.791-4 4-4c.417 0 .818.064 1.196.182.563-1.842 2.277-3.182 4.304-3.182 2.485 0 4.5 2.015 4.5 4.5 0 .235-.018.465-.053.69.328-.123.682-.19 1.053-.19 1.657 0 3 1.343 3 3s-1.343 3-3 3h-11z"/><path fill="url(#c)" d="M9 9.5c0 2.485 2.015 4.5 4.5 4.5 2.251 0 4.115-1.652 4.447-3.81.328-.123.682-.19 1.053-.19 1.657 0 3 1.343 3 3s-1.343 3-3 3h-11c-2.209 0-4-1.791-4-4s1.791-4 4-4c.417 0 .818.064 1.196.182-.128.417-.196.859-.196 1.318z"/></g></svg>