<svg xmlns="http://www.w3.org/2000/svg" width="24" height="24" viewBox="0 0 24 24"><g fill="none" fill-rule="nonzero"><path fill="#67C8E2" d="M6.125 3.417l.682-.394c.722-.417 1.347.666.625 1.083l-.682.394.682.394c.722.417.097 1.499-.625 1.083l-.682-.394v.787c0 .345-.28.625-.625.625s-.625-.28-.625-.625v-.787l-.682.394c-.722.417-1.347-.666-.625-1.083l.682-.394-.682-.394c-.722-.417-.097-1.499.625-1.083l.682.394v-.787c0-.345.28-.625.625-.625s.625.28.625.625v.787zm13 0l.682-.394c.722-.417 1.347.666.625 1.083l-.682.394.682.394c.722.417.097 1.499-.625 1.083l-.682-.394v.787c0 .345-.28.625-.625.625s-.625-.28-.625-.625v-.787l-.682.394c-.722.417-1.347-.666-.625-1.083l.682-.394-.682-.394c-.722-.417-.097-1.499.625-1.083l.682.394v-.787c0-.345.28-.625.625-.625s.625.28.625.625v.787zm0 15l.682-.394c.722-.417 1.347.666.625 1.083l-.682.394.682.394c.722.417.097 1.499-.625 1.083l-.682-.394v.787c0 .345-.28.625-.625.625s-.625-.28-.625-.625v-.787l-.682.394c-.722.417-1.347-.666-.625-1.083l.682-.394-.682-.394c-.722-.417-.097-1.499.625-1.083l.682.394v-.787c0-.345.28-.625.625-.625s.625.28.625.625v.787z"/><path fill="#66AFEB" d="M5.75 12.5h5.266c1.657 0 3-1.343 3-3s-1.343-3-3-3c-.557 0-1.093.153-1.559.437-.354.216-.466.677-.25 1.031.216.354.677.466 1.031.25.233-.142.499-.218.779-.218.828 0 1.5.672 1.5 1.5s-.672 1.5-1.5 1.5h-5.266c-.414 0-.75.336-.75.75s.336.75.75.75zm-2 3h7.751c.552 0 1 .448 1 1s-.448 1-1 1c-.187 0-.364-.051-.519-.145-.354-.216-.815-.104-1.031.25-.216.354-.104.815.25 1.031.389.237.836.364 1.3.364 1.381 0 2.5-1.119 2.5-2.5s-1.119-2.5-2.5-2.5h-7.751c-.414 0-.75.336-.75.75s.336.75.75.75zm11-1.5h1.751c1.381 0 2.5-1.119 2.5-2.5s-1.119-2.5-2.5-2.5c-.464 0-.911.127-1.3.364-.354.216-.466.677-.25 1.031.216.354.677.466 1.031.25.155-.094.332-.145.519-.145.552 0 1 .448 1 1s-.448 1-1 1h-1.751c-.414 0-.75.336-.75.75s.336.75.75.75z"/></g></svg>