<svg xmlns="http://www.w3.org/2000/svg" width="24" height="24" viewBox="0 0 24 24"><defs><linearGradient id="a" x1="50%" x2="50%" y1="0%" y2="98.667%"><stop offset="0%" stop-color="#FFC227"/><stop offset="100%" stop-color="#FFB300"/></linearGradient><linearGradient id="b" x1="50%" x2="50%" y1="0%" y2="100%"><stop offset="0%" stop-color="#A4C5F4"/><stop offset="100%" stop-color="#A7C7F2"/></linearGradient></defs><g fill="none"><path fill="url(#a)" d="M13.413 3.587c2.695 1.137 4.587 3.804 4.587 6.913 0 4.142-3.358 7.5-7.5 7.5-3.109 0-5.776-1.892-6.913-4.587.896.378 1.88.587 2.913.587 4.142 0 7.5-3.358 7.5-7.5 0-1.033-.209-2.018-.587-2.913z"/><path fill="url(#b)" fill-rule="nonzero" d="M21.045 19.001v-.001c-.552 0-1-.448-1-1s.448-1 1-1 1-.448 1-1-.448-1-1-1-1-.448-1-1 .448-1 1-1 1-.448 1-1-.448-1-1-1h-8c-.552 0-1 .448-1 1s.448 1 1 1 1 .448 1 1-.448 1-1 1h-6c-.552 0-1 .448-1 1s.448 1 1 1 1 .448 1 1-.448 1-1 1h-4.045c-.552 0-1 .448-1 1s.448 1 1 1h18c.552 0 1-.448 1-1 0-.537-.424-.976-.955-.999z" opacity=".75"/></g></svg>