<svg xmlns="http://www.w3.org/2000/svg" width="24" height="24" viewBox="0 0 24 24"><defs><linearGradient id="a" x1="50%" x2="50%" y1="0%" y2="98.433%"><stop offset="0%" stop-color="#555872" stop-opacity=".6"/><stop offset="100%" stop-color="#555872" stop-opacity=".9"/></linearGradient></defs><g fill="none"><path fill="url(#a)" d="M11.5 14h-5c-.828 0-1.5-.672-1.5-1.5s.672-1.5 1.5-1.5h1c.828 0 1.5-.672 1.5-1.5s-.672-1.5-1.5-1.5h-4c-.828 0-1.5-.672-1.5-1.5s.672-1.5 1.5-1.5h11c.828 0 1.5.672 1.5 1.5s-.672 1.5-1.5 1.5-1.5.672-1.5 1.5.672 1.5 1.5 1.5h5c.828 0 1.5.672 1.5 1.5s-.672 1.5-1.5 1.5h-1c-.828 0-1.5.672-1.5 1.5s.672 1.5 1.5 1.5 1.5.672 1.5 1.5-.672 1.5-1.5 1.5h-8c-.828 0-1.5-.672-1.5-1.5s.672-1.5 1.5-1.5h1c.828 0 1.5-.672 1.5-1.5s-.672-1.5-1.5-1.5z" opacity=".8"/><rect width="4" height="3" x="3" y="17" fill="#555872" opacity=".7" rx="1.5"/><rect width="4" height="3" x="18" y="5" fill="#555872" opacity=".6" rx="1.5"/></g></svg>