<svg xmlns="http://www.w3.org/2000/svg" width="24" height="24" viewBox="0 0 24 24"><defs><linearGradient id="a" x1="100%" x2="31.139%" y1="0%" y2="67.974%"><stop offset="0%" stop-color="#FFCD44"/><stop offset="100%" stop-color="#FFB403"/></linearGradient><radialGradient id="b" cx="82.715%" cy="14.258%" fx="82.715%" fy="14.258%"><stop offset="0%" stop-color="#777AB4"/><stop offset="100%" stop-color="#777AB4" stop-opacity="0"/></radialGradient><radialGradient id="c" cx="8.171%" cy="-6.535%" r="63.588%" fx="8.171%" fy="-6.535%"><stop offset="0%" stop-color="#777AB4"/><stop offset="100%" stop-color="#777AB4" stop-opacity="0"/></radialGradient></defs><g fill="none"><circle cx="16" cy="10" r="4" fill="url(#a)"/><path fill="#FFB300" fill-rule="nonzero" d="M15.48 2.73l.26 1.477c.174.985-1.304 1.245-1.477.26l-.26-1.477c-.174-.985 1.304-1.245 1.477-.26zm2.257 12.803l.26 1.477c.174.985-1.304 1.245-1.477.26l-.26-1.477c-.174-.985 1.304-1.245 1.477-.26zm3.036-11.041l-.86 1.229c-.574.819-1.802-.041-1.229-.86l.86-1.229c.574-.819 1.802.041 1.229.86zm-7.456 10.649l-.86 1.229c-.574.819-1.802-.041-1.229-.86l.86-1.229c.574-.819 1.802.041 1.229.86zm-2.825-9.913l1.229.86c.819.574-.041 1.802-.86 1.229l-1.229-.86c-.819-.574.041-1.802.86-1.229zm10.649 7.456l1.229.86c.819.574-.041 1.802-.86 1.229l-1.229-.86c-.819-.574.041-1.802.86-1.229zm2.13-3.204l-1.477.26c-.985.174-1.245-1.304-.26-1.477l1.477-.26c.985-.174 1.245 1.304.26 1.477zm-12.803 2.257l-1.477.26c-.985.174-1.245-1.304-.26-1.477l1.477-.26c.985-.174 1.245 1.304.26 1.477z"/><path fill="#000" fill-opacity=".02" d="M6 19.5c-2.209 0-4-1.791-4-4s1.791-4 4-4c.417 0 .818.064 1.196.182.563-1.842 2.277-3.182 4.304-3.182 2.485 0 4.5 2.015 4.5 4.5 0 .235-.018.465-.053.69.328-.123.682-.19 1.053-.19 1.657 0 3 1.343 3 3s-1.343 3-3 3h-11zM6 19.75c-2.209 0-4-1.791-4-4s1.791-4 4-4c.417 0 .818.064 1.196.182.563-1.842 2.277-3.182 4.304-3.182 2.485 0 4.5 2.015 4.5 4.5 0 .235-.018.465-.053.69.328-.123.682-.19 1.053-.19 1.657 0 3 1.343 3 3s-1.343 3-3 3h-11zM6 20c-2.209 0-4-1.791-4-4s1.791-4 4-4c.417 0 .818.064 1.196.182.563-1.842 2.277-3.182 4.304-3.182 2.485 0 4.5 2.015 4.5 4.5 0 .235-.018.465-.053.69.328-.123.682-.19 1.053-.19 1.657 0 3 1.343 3 3s-1.343 3-3 3h-11z"/><path fill="#000" fill-opacity=".02" fill-rule="nonzero" d="M16.25 12.5c0-2.623-2.127-4.75-4.75-4.75-2.02 0-3.792 1.272-4.465 3.127-.335-.084-.682-.127-1.035-.127-2.347 0-4.25 1.903-4.25 4.25s1.903 4.25 4.25 4.25h11c1.795 0 3.25-1.455 3.25-3.25s-1.455-3.25-3.25-3.25c-.259 0-.515.03-.762.09l.012-.34z"/><path fill="#FFF" d="M6 19c-2.209 0-4-1.791-4-4s1.791-4 4-4c.417 0 .818.064 1.196.182.563-1.842 2.277-3.182 4.304-3.182 2.485 0 4.5 2.015 4.5 4.5 0 .235-.018.465-.053.69.328-.123.682-.19 1.053-.19 1.657 0 3 1.343 3 3s-1.343 3-3 3h-11z"/><circle cx="6" cy="15" r="4" fill="url(#b)" opacity=".24"/><circle cx="17" cy="16" r="3" fill="url(#c)" opacity=".24"/><circle cx="11.5" cy="12.5" r="4.5" fill="#FFF"/></g></svg>