<svg xmlns="http://www.w3.org/2000/svg" width="24" height="24" viewBox="0 0 24 24"><g fill="#555872"><path fill-rule="nonzero" d="M12.75 11.5h1.266c1.657 0 3-1.343 3-3s-1.343-3-3-3c-.557 0-1.093.153-1.559.437-.354.216-.466.677-.25 1.031.216.354.677.466 1.031.25.233-.142.499-.218.779-.218.828 0 1.5.672 1.5 1.5s-.672 1.5-1.5 1.5h-1.266c-.414 0-.75.336-.75.75s.336.75.75.75z" opacity=".8"/><rect width="3" height="1.5" x="8" y="10" opacity=".8" rx=".75"/><rect width="2" height="1.5" x="7" y="13" opacity=".8" rx=".75"/><path fill-rule="nonzero" d="M10.75 14.5h3.751c.552 0 1 .448 1 1s-.448 1-1 1c-.187 0-.364-.051-.519-.145-.354-.216-.815-.104-1.031.25-.216.354-.104.815.25 1.031.389.237.836.364 1.3.364 1.381 0 2.5-1.119 2.5-2.5s-1.119-2.5-2.5-2.5h-3.751c-.414 0-.75.336-.75.75s.336.75.75.75z" opacity=".8"/><circle cx="3.25" cy="17.75" r="1" opacity=".45"/><circle cx="5" cy="12" r="1" opacity=".55"/><path fill-rule="nonzero" d="M17.75 13h1.751c1.381 0 2.5-1.119 2.5-2.5s-1.119-2.5-2.5-2.5c-.464 0-.911.127-1.3.364-.354.216-.466.677-.25 1.031.216.354.677.466 1.031.25.155-.094.332-.145.519-.145.552 0 1 .448 1 1s-.448 1-1 1h-1.751c-.414 0-.75.336-.75.75s.336.75.75.75z" opacity=".8"/><circle cx="6.75" cy="7.75" r="1.25" opacity=".6"/><circle cx="2.75" cy="8.25" r="1" opacity=".45"/><circle cx="7" cy="17" r="1" opacity=".55"/><circle cx="2.25" cy="13.75" r="1" opacity=".45"/></g></svg>