<svg xmlns="http://www.w3.org/2000/svg" width="24" height="24" viewBox="0 0 24 24"><defs><radialGradient id="a" cx="82.715%" cy="14.258%" fx="82.715%" fy="14.258%"><stop offset="0%" stop-color="#777AB4"/><stop offset="100%" stop-color="#777AB4" stop-opacity="0"/></radialGradient><radialGradient id="b" cx="8.171%" cy="-6.535%" r="63.588%" fx="8.171%" fy="-6.535%"><stop offset="0%" stop-color="#777AB4"/><stop offset="100%" stop-color="#777AB4" stop-opacity="0"/></radialGradient></defs><g fill="none"><path fill="#FFF" fill-rule="nonzero" d="M6.125 16.417l.682-.394c.722-.417 1.347.666.625 1.083l-.682.394.682.394c.722.417.097 1.499-.625 1.083l-.682-.394v.787c0 .345-.28.625-.625.625s-.625-.28-.625-.625v-.787l-.682.394c-.722.417-1.347-.666-.625-1.083l.682-.394-.682-.394c-.722-.417-.097-1.499.625-1.083l.682.394v-.787c0-.345.28-.625.625-.625s.625.28.625.625v.787zm12 0l.682-.394c.722-.417 1.347.666.625 1.083l-.682.394.682.394c.722.417.097 1.499-.625 1.083l-.682-.394v.787c0 .345-.28.625-.625.625s-.625-.28-.625-.625v-.787l-.682.394c-.722.417-1.347-.666-.625-1.083l.682-.394-.682-.394c-.722-.417-.097-1.499.625-1.083l.682.394v-.787c0-.345.28-.625.625-.625s.625.28.625.625v.787zm-6 2l.682-.394c.722-.417 1.347.666.625 1.083l-.682.394.682.394c.722.417.097 1.499-.625 1.083l-.682-.394v.787c0 .345-.28.625-.625.625s-.625-.28-.625-.625v-.787l-.682.394c-.722.417-1.347-.666-.625-1.083l.682-.394-.682-.394c-.722-.417-.097-1.499.625-1.083l.682.394v-.787c0-.345.28-.625.625-.625s.625.28.625.625v.787z"/><path fill="#000" fill-opacity=".02" d="M7 14.5c-2.209 0-4-1.791-4-4s1.791-4 4-4c.417 0 .818.064 1.196.182.563-1.842 2.277-3.182 4.304-3.182 2.485 0 4.5 2.015 4.5 4.5 0 .235-.018.465-.053.69.328-.123.682-.19 1.053-.19 1.657 0 3 1.343 3 3s-1.343 3-3 3h-11zM7 14.75c-2.209 0-4-1.791-4-4s1.791-4 4-4c.417 0 .818.064 1.196.182.563-1.842 2.277-3.182 4.304-3.182 2.485 0 4.5 2.015 4.5 4.5 0 .235-.018.465-.053.69.328-.123.682-.19 1.053-.19 1.657 0 3 1.343 3 3s-1.343 3-3 3h-11zM7 15c-2.209 0-4-1.791-4-4s1.791-4 4-4c.417 0 .818.064 1.196.182.563-1.842 2.277-3.182 4.304-3.182 2.485 0 4.5 2.015 4.5 4.5 0 .235-.018.465-.053.69.328-.123.682-.19 1.053-.19 1.657 0 3 1.343 3 3s-1.343 3-3 3h-11z"/><path fill="#000" fill-opacity=".02" fill-rule="nonzero" d="M17.25 7.5c0-2.623-2.127-4.75-4.75-4.75-2.02 0-3.792 1.272-4.465 3.127-.335-.084-.682-.127-1.035-.127-2.347 0-4.25 1.903-4.25 4.25s1.903 4.25 4.25 4.25h11c1.795 0 3.25-1.455 3.25-3.25s-1.455-3.25-3.25-3.25c-.259 0-.515.03-.762.09l.012-.34z"/><path fill="#FFF" d="M7 14c-2.209 0-4-1.791-4-4s1.791-4 4-4c.417 0 .818.064 1.196.182.563-1.842 2.277-3.182 4.304-3.182 2.485 0 4.5 2.015 4.5 4.5 0 .235-.018.465-.053.69.328-.123.682-.19 1.053-.19 1.657 0 3 1.343 3 3s-1.343 3-3 3h-11z"/><circle cx="7" cy="10" r="4" fill="url(#a)" opacity=".24"/><circle cx="18" cy="11" r="3" fill="url(#b)" opacity=".24"/><circle cx="12.5" cy="7.5" r="4.5" fill="#FFF"/></g></svg>