<svg xmlns="http://www.w3.org/2000/svg" width="24" height="24" viewBox="0 0 24 24"><defs><linearGradient id="a" x1="50%" x2="50%" y1="0%" y2="100%"><stop offset="0%" stop-color="#B0CEF8"/><stop offset="100%" stop-color="#A7C7F2"/></linearGradient><radialGradient id="b" cx="90.014%" r="67.179%" fx="90.014%" fy="50%" gradientTransform="matrix(0 1 -1.039 0 1.42 -.4)"><stop offset="0%" stop-color="#AECCF6"/><stop offset="63.5%" stop-color="#AECCF7"/><stop offset="100%" stop-color="#90B2E6"/></radialGradient><radialGradient id="c" cx="79.123%" cy="43.084%" r="67.247%" fx="79.123%" fy="43.084%" gradientTransform="matrix(0 1 -1.083 0 1.258 -.36)"><stop offset="0%" stop-color="#AECCF6"/><stop offset="63.5%" stop-color="#AECCF7"/><stop offset="100%" stop-color="#90B2E6"/></radialGradient><radialGradient id="d" cx="65.922%" cy="29.965%" r="87.298%" fx="65.922%" fy="29.965%" gradientTransform="matrix(-.061 .996 -.859 -.124 .957 -.32)"><stop offset="0%" stop-color="#AECCF6"/><stop offset="62.072%" stop-color="#AECCF7"/><stop offset="100%" stop-color="#90B2E6"/></radialGradient></defs><g fill="none"><path fill="url(#a)" d="M3.5 6.571c0-2.498 3.575-3.571 8.571-3.571 4.997 0 8.571 1.073 8.571 3.571 0 2.19-1.036 4.229-2.895 5.438-.277.18-.894.54-1.049 1.333-.092.468.072 1.14.399 1.774.547 1.06.568 2.297-.236 3.169-.976 1.058-.668 2.313.924 3.763-2.106.183-3.881-.13-5.326-.939-1.374-.77-2.138-2.044-2.293-3.823-2.224-1.55-3.341-3.415-2.863-4.792-2.415-1.063-3.804-3.39-3.804-5.922z"/><path fill="url(#b)" d="M16.879 14.623c.061.164.134.33.219.493.547 1.06.568 2.297-.236 3.169-.976 1.058-.668 2.313.924 3.763-2.106.183-3.881-.13-5.326-.939-1.374-.77-2.138-2.044-2.293-3.823-.625-.436-1.162-.896-1.601-1.363 1.326-1.499 4.47-2.124 7.873-1.4l.44.101z"/><path fill="url(#c)" d="M18.59 11.355c-.258.238-.539.457-.842.654-.277.18-.894.54-1.049 1.333-.092.468.072 1.14.399 1.774.547 1.06.568 2.297-.236 3.169l-.083.094c-1.22.135-2.601.069-4.028-.234-.927-.197-1.796-.478-2.582-.82l-.003-.038c-2.224-1.55-3.341-3.415-2.863-4.792-.396-.174-.764-.383-1.104-.62.872-2 4.432-2.942 8.334-2.113 1.555.331 2.947.896 4.056 1.595z"/><path fill="url(#d)" d="M17.938 3.743c1.117.667 2.028 1.477 2.662 2.364.029.149.044.304.044.465 0 2.19-1.036 4.229-2.895 5.438-.277.18-.894.54-1.049 1.333-.029.147-.032.315-.013.495-1.558.384-3.367.449-5.244.118-1.542-.272-2.95-.78-4.143-1.448l.005-.015-.156-.071c-.905-.525-1.68-1.144-2.289-1.822-.882-1.13-1.359-2.545-1.359-4.029 0-2.498 3.575-3.571 8.571-3.571 2.341 0 4.371.236 5.866.743z"/><ellipse cx="12.071" cy="5.381" fill="#8DB0E3" rx="6.667" ry="1.429"/></g></svg>