<svg width="24" height="24" viewBox="0 0 24 24" fill="none" xmlns="http://www.w3.org/2000/svg">
<ellipse cx="9" cy="16" rx="2" ry="2.00001" fill="white"/>
<path d="M9 16L9 8" stroke="white" stroke-width="1.25" stroke-linecap="round" stroke-linejoin="round"/>
<path d="M6 12.4497L6.46468 13.1009L6.8 12.8616V12.4497H6ZM12 12.4497H11.2V12.8616L11.5353 13.1009L12 12.4497ZM6.8 5C6.8 3.78497 7.78497 2.8 9 2.8V1.2C6.90132 1.2 5.2 2.90131 5.2 5H6.8ZM6.8 12.4497V5H5.2V12.4497H6.8ZM4.8 16.25C4.8 14.9756 5.44289 13.83 6.46468 13.1009L5.53532 11.7985C4.12821 12.8025 3.2 14.4164 3.2 16.25H4.8ZM9 20.2C6.64124 20.2 4.8 18.3934 4.8 16.25H3.2C3.2 19.3534 5.83591 21.8 9 21.8V20.2ZM13.2 16.25C13.2 18.3934 11.3588 20.2 9 20.2V21.8C12.1641 21.8 14.8 19.3534 14.8 16.25H13.2ZM11.5353 13.1009C12.5571 13.83 13.2 14.9756 13.2 16.25H14.8C14.8 14.4164 13.8718 12.8025 12.4647 11.7985L11.5353 13.1009ZM11.2 5V12.4497H12.8V5H11.2ZM9 2.8C10.215 2.8 11.2 3.78497 11.2 5H12.8C12.8 2.90132 11.0987 1.2 9 1.2V2.8Z" fill="white"/>
</svg>
