<svg width="24" height="24" viewBox="0 0 24 24" fill="none" xmlns="http://www.w3.org/2000/svg">
<circle cx="11.9997" cy="11.9999" r="2.76923" stroke="#2E316A" stroke-width="1.6"/>
<path d="M12.8 3C12.8 2.55817 12.4418 2.2 12 2.2C11.5582 2.2 11.2 2.55817 11.2 3H12.8ZM12.8 5.47253V3H11.2V5.47253H12.8Z" fill="#2E316A"/>
<circle cx="11.9996" cy="12.0001" r="6.52747" stroke="#2E316A" stroke-width="1.6"/>
<path d="M12.8 21C12.8 21.4418 12.4418 21.8 12 21.8C11.5582 21.8 11.2 21.4418 11.2 21H12.8ZM12.8 18.5275V21H11.2V18.5275H12.8Z" fill="#2E316A"/>
<circle cx="11.9996" cy="12.0001" r="6.52747" stroke="#2E316A" stroke-width="1.6"/>
<path d="M12.8 21C12.8 21.4418 12.4418 21.8 12 21.8C11.5582 21.8 11.2 21.4418 11.2 21H12.8ZM12.8 18.5275V21H11.2V18.5275H12.8Z" fill="#2E316A"/>
<path d="M21 12.8C21.4418 12.8 21.8 12.4418 21.8 12C21.8 11.5582 21.4418 11.2 21 11.2L21 12.8ZM18.5275 12.8L21 12.8L21 11.2L18.5275 11.2L18.5275 12.8Z" fill="#2E316A"/>
<path d="M3 12.8C2.55817 12.8 2.2 12.4418 2.2 12C2.2 11.5582 2.55817 11.2 3 11.2L3 12.8ZM5.47253 12.8L3 12.8L3 11.2L5.47253 11.2L5.47253 12.8Z" fill="#2E316A"/>
<path d="M21 12.8C21.4418 12.8 21.8 12.4418 21.8 12C21.8 11.5582 21.4418 11.2 21 11.2L21 12.8ZM18.5275 12.8L21 12.8L21 11.2L18.5275 11.2L18.5275 12.8Z" fill="#2E316A"/>
<path d="M3 12.8C2.55817 12.8 2.2 12.4418 2.2 12C2.2 11.5582 2.55817 11.2 3 11.2L3 12.8ZM5.47253 12.8L3 12.8L3 11.2L5.47253 11.2L5.47253 12.8Z" fill="#2E316A"/>
</svg>
