<svg width="24" height="24" viewBox="0 0 24 24" fill="none" xmlns="http://www.w3.org/2000/svg">
<circle cx="11.9998" cy="12" r="3.07692" stroke="white" stroke-width="2"/>
<path d="M13 2C13 1.44772 12.5523 1 12 1C11.4477 1 11 1.44772 11 2H13ZM13 4.74725V2H11V4.74725H13Z" fill="white"/>
<circle cx="11.9998" cy="12.0001" r="7.25275" stroke="white" stroke-width="2"/>
<path d="M13 22C13 22.5523 12.5523 23 12 23C11.4477 23 11 22.5523 11 22H13ZM13 19.2527V22H11V19.2527H13Z" fill="white"/>
<circle cx="11.9998" cy="12.0001" r="7.25275" stroke="white" stroke-width="2"/>
<path d="M13 22C13 22.5523 12.5523 23 12 23C11.4477 23 11 22.5523 11 22H13ZM13 19.2527V22H11V19.2527H13Z" fill="white"/>
<path d="M22 13C22.5523 13 23 12.5523 23 12C23 11.4477 22.5523 11 22 11L22 13ZM19.2527 13L22 13L22 11L19.2527 11L19.2527 13Z" fill="white"/>
<path d="M2 13C1.44772 13 1 12.5523 1 12C1 11.4477 1.44772 11 2 11L2 13ZM4.74725 13L2 13L2 11L4.74725 11L4.74725 13Z" fill="white"/>
<path d="M22 13C22.5523 13 23 12.5523 23 12C23 11.4477 22.5523 11 22 11L22 13ZM19.2527 13L22 13L22 11L19.2527 11L19.2527 13Z" fill="white"/>
<path d="M2 13C1.44772 13 1 12.5523 1 12C1 11.4477 1.44772 11 2 11L2 13ZM4.74725 13L2 13L2 11L4.74725 11L4.74725 13Z" fill="white"/>
</svg>
